<svg width="680" viewBox="0 0 680 720" xmlns="http://www.w3.org/2000/svg" style="background:#fff;font-family:Arial,sans-serif">
  <defs>
    <marker id="arrow" viewBox="0 0 10 10" refX="8" refY="5" markerWidth="6" markerHeight="6" orient="auto-start-reverse">
      <path d="M2 1L8 5L2 9" fill="none" stroke="#666" stroke-width="1.5" stroke-linecap="round" stroke-linejoin="round"/>
    </marker>
  </defs>

  <!-- ── Row 0: Data ── -->
  <rect x="40" y="30" width="140" height="56" rx="8" fill="#E1F5EE" stroke="#0F6E56" stroke-width="0.8"/>
  <text x="110" y="53" text-anchor="middle" font-size="13" font-weight="600" fill="#085041">train.csv</text>
  <text x="110" y="72" text-anchor="middle" font-size="11" fill="#0F6E56">3 546 rows</text>

  <rect x="500" y="30" width="140" height="56" rx="8" fill="#E1F5EE" stroke="#0F6E56" stroke-width="0.8"/>
  <text x="570" y="53" text-anchor="middle" font-size="13" font-weight="600" fill="#085041">test.csv</text>
  <text x="570" y="72" text-anchor="middle" font-size="11" fill="#0F6E56">395 rows · used once</text>

  <!-- ── Row 1: Preprocessing ── -->
  <rect x="200" y="30" width="260" height="56" rx="8" fill="#F1EFE8" stroke="#5F5E5A" stroke-width="0.8"/>
  <text x="330" y="53" text-anchor="middle" font-size="13" font-weight="600" fill="#2C2C2A">Preprocessing</text>
  <text x="330" y="72" text-anchor="middle" font-size="11" fill="#5F5E5A">label norm · text clean · union LabelEncoder</text>

  <line x1="180" y1="58" x2="198" y2="58" stroke="#666" stroke-width="1.2" marker-end="url(#arrow)"/>
  <line x1="460" y1="58" x2="500" y2="58" stroke="#666" stroke-width="1.2" marker-end="url(#arrow)"/>

  <!-- ── Row 2: Split ── -->
  <rect x="200" y="130" width="260" height="56" rx="8" fill="#F1EFE8" stroke="#5F5E5A" stroke-width="0.8"/>
  <text x="330" y="153" text-anchor="middle" font-size="13" font-weight="600" fill="#2C2C2A">Three-way split</text>
  <text x="330" y="172" text-anchor="middle" font-size="11" fill="#5F5E5A">75% train · 12.5% dev · 12.5% internal test</text>

  <line x1="330" y1="86" x2="330" y2="128" stroke="#666" stroke-width="1.2" marker-end="url(#arrow)"/>

  <!-- ── Row 3: Models ── -->
  <rect x="40" y="240" width="108" height="56" rx="8" fill="#EEEDFE" stroke="#534AB7" stroke-width="0.8"/>
  <text x="94" y="262" text-anchor="middle" font-size="12" font-weight="600" fill="#3C3489">TF-IDF + LR</text>
  <text x="94" y="280" text-anchor="middle" font-size="10" fill="#534AB7">baseline · CPU</text>

  <rect x="160" y="240" width="108" height="56" rx="8" fill="#EEEDFE" stroke="#534AB7" stroke-width="0.8"/>
  <text x="214" y="262" text-anchor="middle" font-size="12" font-weight="600" fill="#3C3489">SetFit</text>
  <text x="214" y="280" text-anchor="middle" font-size="10" fill="#534AB7">multilingual · CPU</text>

  <rect x="280" y="240" width="108" height="56" rx="8" fill="#EEEDFE" stroke="#534AB7" stroke-width="0.8"/>
  <text x="334" y="262" text-anchor="middle" font-size="12" font-weight="600" fill="#3C3489">rubert-tiny2</text>
  <text x="334" y="280" text-anchor="middle" font-size="10" fill="#534AB7">full FT · GPU</text>

  <rect x="400" y="240" width="108" height="56" rx="8" fill="#EEEDFE" stroke="#534AB7" stroke-width="0.8"/>
  <text x="454" y="262" text-anchor="middle" font-size="12" font-weight="600" fill="#3C3489">LoRA r=8</text>
  <text x="454" y="280" text-anchor="middle" font-size="10" fill="#534AB7">PEFT · GPU</text>

  <rect x="520" y="240" width="120" height="56" rx="8" fill="#EEEDFE" stroke="#534AB7" stroke-width="0.8"/>
  <text x="580" y="262" text-anchor="middle" font-size="12" font-weight="600" fill="#3C3489">rubert-base</text>
  <text x="580" y="280" text-anchor="middle" font-size="10" fill="#534AB7">full FT + RuBioBERT</text>

  <line x1="280" y1="158" x2="94" y2="238" stroke="#888" stroke-width="1" marker-end="url(#arrow)"/>
  <line x1="300" y1="158" x2="214" y2="238" stroke="#888" stroke-width="1" marker-end="url(#arrow)"/>
  <line x1="330" y1="186" x2="334" y2="238" stroke="#888" stroke-width="1" marker-end="url(#arrow)"/>
  <line x1="360" y1="158" x2="454" y2="238" stroke="#888" stroke-width="1" marker-end="url(#arrow)"/>
  <line x1="380" y1="158" x2="560" y2="238" stroke="#888" stroke-width="1" marker-end="url(#arrow)"/>

  <!-- ── Row 4: Evaluation ── -->
  <rect x="100" y="360" width="200" height="56" rx="8" fill="#FAEEDA" stroke="#BA7517" stroke-width="0.8"/>
  <text x="200" y="382" text-anchor="middle" font-size="13" font-weight="600" fill="#633806">Evaluation</text>
  <text x="200" y="400" text-anchor="middle" font-size="11" fill="#854F0B">macro F1 · McNemar · bootstrap CI</text>

  <rect x="360" y="360" width="200" height="56" rx="8" fill="#FAEEDA" stroke="#BA7517" stroke-width="0.8"/>
  <text x="460" y="382" text-anchor="middle" font-size="13" font-weight="600" fill="#633806">Triage metrics</text>
  <text x="460" y="400" text-anchor="middle" font-size="11" fill="#854F0B">Top-3 acc · harmful error rate</text>

  <line x1="200" y1="296" x2="200" y2="358" stroke="#666" stroke-width="1.2" marker-end="url(#arrow)"/>
  <line x1="460" y1="296" x2="460" y2="358" stroke="#666" stroke-width="1.2" marker-end="url(#arrow)"/>

  <!-- ── Row 5: Extras ── -->
  <rect x="40" y="480" width="140" height="56" rx="8" fill="#F1EFE8" stroke="#5F5E5A" stroke-width="0.8"/>
  <text x="110" y="502" text-anchor="middle" font-size="12" font-weight="600" fill="#2C2C2A">Ensemble</text>
  <text x="110" y="520" text-anchor="middle" font-size="10" fill="#5F5E5A">soft-voting B+D</text>

  <rect x="200" y="480" width="140" height="56" rx="8" fill="#F1EFE8" stroke="#5F5E5A" stroke-width="0.8"/>
  <text x="270" y="502" text-anchor="middle" font-size="12" font-weight="600" fill="#2C2C2A">Explainability</text>
  <text x="270" y="520" text-anchor="middle" font-size="10" fill="#5F5E5A">gradient × input</text>

  <rect x="360" y="480" width="140" height="56" rx="8" fill="#F1EFE8" stroke="#5F5E5A" stroke-width="0.8"/>
  <text x="430" y="502" text-anchor="middle" font-size="12" font-weight="600" fill="#2C2C2A">Multi-label</text>
  <text x="430" y="520" text-anchor="middle" font-size="10" fill="#5F5E5A">Binary Relevance</text>

  <rect x="520" y="480" width="120" height="56" rx="8" fill="#F1EFE8" stroke="#5F5E5A" stroke-width="0.8"/>
  <text x="580" y="502" text-anchor="middle" font-size="12" font-weight="600" fill="#2C2C2A">OOD detection</text>
  <text x="580" y="520" text-anchor="middle" font-size="10" fill="#5F5E5A">centroid cosine</text>

  <line x1="200" y1="416" x2="110" y2="478" stroke="#888" stroke-width="1" marker-end="url(#arrow)"/>
  <line x1="200" y1="416" x2="270" y2="478" stroke="#888" stroke-width="1" marker-end="url(#arrow)"/>
  <line x1="460" y1="416" x2="430" y2="478" stroke="#888" stroke-width="1" marker-end="url(#arrow)"/>
  <line x1="460" y1="416" x2="570" y2="478" stroke="#888" stroke-width="1" marker-end="url(#arrow)"/>

  <!-- ── Row 6: Deployment ── -->
  <rect x="160" y="600" width="160" height="56" rx="8" fill="#FAECE7" stroke="#993C1D" stroke-width="0.8"/>
  <text x="240" y="622" text-anchor="middle" font-size="13" font-weight="600" fill="#4A1B0C">FastAPI</text>
  <text x="240" y="640" text-anchor="middle" font-size="11" fill="#993C1D">/predict · threshold 0.70</text>

  <rect x="360" y="600" width="160" height="56" rx="8" fill="#FAECE7" stroke="#993C1D" stroke-width="0.8"/>
  <text x="440" y="622" text-anchor="middle" font-size="13" font-weight="600" fill="#4A1B0C">Gradio demo</text>
  <text x="440" y="640" text-anchor="middle" font-size="11" fill="#993C1D">HF Spaces · local UI</text>

  <line x1="270" y1="536" x2="240" y2="598" stroke="#666" stroke-width="1.2" marker-end="url(#arrow)"/>
  <line x1="430" y1="536" x2="440" y2="598" stroke="#666" stroke-width="1.2" marker-end="url(#arrow)"/>
</svg>
